<svg width="100" height="100" viewBox="0 0 100 100" fill="none" xmlns="http://www.w3.org/2000/svg">
<rect width="100" height="100" fill="#33273D"/>
<path d="M28.7942 12.2822C30.4285 12.2822 31.8683 12.5677 33.1135 13.1384C34.3588 13.7092 35.3187 14.5264 35.9932 15.5901C36.6936 16.6537 37.0439 17.9379 37.0439 19.4426C37.0439 20.6878 36.7456 21.8293 36.1489 22.8669C35.5782 23.9046 34.7869 24.7997 33.7751 25.552C32.7893 26.3043 31.6608 26.8881 30.3896 27.3032C29.1185 27.7183 27.7954 27.9258 26.4204 27.9258C26.161 27.9258 25.8237 27.8998 25.4087 27.8479C24.9936 27.7701 24.7859 27.6275 24.7859 27.4199C24.7859 27.2643 24.8768 27.1476 25.0583 27.0698C25.2399 26.992 25.4475 26.94 25.6809 26.9141C26.0441 26.8622 26.4073 26.8102 26.7705 26.7583C27.1337 26.6805 27.484 26.6027 27.8213 26.5249C28.9368 26.2136 29.9356 25.7466 30.8176 25.124C31.6997 24.4755 32.4001 23.6582 32.9189 22.6724C33.4637 21.6606 33.7363 20.4803 33.7363 19.1313C33.7363 18.0418 33.5026 17.0559 33.0356 16.1738C32.5946 15.2918 31.9331 14.5914 31.051 14.0725C30.169 13.5537 29.0795 13.2942 27.7825 13.2942C27.5749 13.2942 27.4061 13.3591 27.2764 13.4888C27.1467 13.5925 27.03 13.7612 26.9263 13.9946L26.615 14.9285L20.9333 33.4905C20.5961 34.5282 20.5703 35.3066 20.8557 35.8254C21.1411 36.3183 21.7896 36.6687 22.8013 36.8762C23.1904 36.954 23.4499 37.0447 23.5796 37.1484C23.7093 37.2522 23.7742 37.3951 23.7742 37.5767C23.7741 37.7322 23.6574 37.8361 23.4241 37.8879C23.1906 37.9658 22.918 38.0046 22.6067 38.0046C21.9582 38.0046 21.4263 37.9786 21.0112 37.9268C20.5962 37.8749 20.22 37.836 19.8828 37.8101C19.5456 37.7582 19.1435 37.7322 18.6765 37.7322C17.7426 37.7322 16.9513 37.7711 16.3027 37.8489C15.6801 37.9526 14.8757 38.0046 13.8899 38.0046C13.5786 38.0046 13.3451 37.9658 13.1895 37.8879C13.0339 37.8361 12.9561 37.7322 12.9561 37.5767C12.9561 37.3951 13.0729 37.2522 13.3064 37.1484C13.5658 37.0447 13.916 36.954 14.3569 36.8762C15.3168 36.6946 16.0821 36.396 16.6528 35.981C17.2236 35.5659 17.6516 34.8785 17.937 33.9187L23.1516 16.9131C23.5148 15.7717 23.5277 14.9286 23.1904 14.3838C22.9114 13.8954 22.2361 13.5849 21.1648 13.4509C20.7039 13.8496 20.2144 14.4536 19.4658 15.2783C17.5809 17.355 14.8061 14.7571 17.0303 13.3362C17.9432 12.753 19.2762 12.5046 20.5557 12.4292C20.7008 12.409 20.8527 12.3992 21.0112 12.3992H21.8284C22.2434 12.3992 22.6975 12.412 23.1904 12.438H24.4746C24.76 12.438 25.1752 12.4251 25.72 12.3992C26.2647 12.3732 26.8226 12.3472 27.3933 12.3213C27.9899 12.2953 28.457 12.2822 28.7942 12.2822Z" fill="#D4D5D0"/>

<path d="M71.0264 35.6841C70.2463 35.6841 69.5149 35.4241 68.8323 34.904C68.1496 34.3839 67.597 33.7013 67.1745 32.8561C66.7844 32.011 66.5894 31.1171 66.5894 30.1744C66.5894 28.6466 66.8819 27.0051 67.467 25.2498C68.0846 23.462 68.9298 21.7879 70.0025 20.2276C71.0751 18.6349 72.3104 17.3346 73.7081 16.3269C75.1384 15.3193 76.6661 14.8154 78.2914 14.8154C79.9167 14.8154 81.1682 15.368 82.0458 16.4732C82.956 17.5784 83.4111 18.9437 83.4111 20.5689C83.4111 22.0317 83.1185 23.6407 82.5334 25.396C81.9483 27.1189 81.1032 28.7604 79.998 30.3207C78.9253 31.8809 77.6251 33.1649 76.0973 34.1726C74.602 35.1803 72.9117 35.6841 71.0264 35.6841ZM71.8065 34.2214C72.5867 34.2214 73.3668 33.88 74.1469 33.1974C74.9596 32.5148 75.7235 31.6209 76.4386 30.5157C77.1862 29.4105 77.8363 28.1915 78.3889 26.8588C78.974 25.5261 79.4291 24.1933 79.7542 22.8606C80.1117 21.5279 80.2905 20.3089 80.2905 19.2037C80.2905 18.3586 80.1442 17.6597 79.8517 17.1071C79.5917 16.5545 79.0391 16.2782 78.1939 16.2782C77.4463 16.2782 76.6661 16.587 75.8535 17.2046C75.0734 17.8222 74.3095 18.6511 73.5618 19.6913C72.8467 20.7315 72.1966 21.9017 71.6115 23.2019C71.0264 24.4696 70.5551 25.8024 70.1975 27.2001C69.8724 28.5654 69.7099 29.8981 69.7099 31.1983C69.7099 32.271 69.8887 33.0512 70.2462 33.5387C70.6363 33.9938 71.1564 34.2214 71.8065 34.2214Z" fill="#D4D5D0"/>

<path d="M15.1396 64.3575C17.5018 64.0523 22.0972 66.3795 23.5012 67.3013C23.5699 67.3352 23.6369 67.3739 23.7023 67.4175C23.9936 67.5793 24.204 67.8219 24.3334 68.1455C24.4952 68.4691 24.4952 68.8251 24.3334 69.2134L21.1298 77.4651C21.0328 77.6916 21.049 77.8212 21.1784 77.8535C21.3402 77.8859 21.4695 77.821 21.5666 77.6592C22.8933 75.3941 24.2363 73.4849 25.5954 71.9317C26.9869 70.3461 28.3136 69.1486 29.5756 68.3396C30.8377 67.5306 31.9542 67.1263 32.925 67.1263C33.6045 67.1263 34.1869 67.3689 34.6723 67.8543C35.1901 68.3073 35.5138 68.9384 35.6433 69.7473C35.805 70.524 35.6593 71.4301 35.2062 72.4656L30.7407 83.0471C30.2553 84.2121 30.3362 84.7947 30.9833 84.7947C31.3717 84.7947 31.841 84.6489 32.3911 84.3577C32.9735 84.0665 33.5559 83.7267 34.1384 83.3384C34.7208 82.9177 35.2226 82.5455 35.6433 82.222C36.0962 81.8661 36.3873 81.6234 36.5168 81.4939C36.5486 81.4622 36.5648 81.4459 36.5654 81.4453H36.6625C36.7596 81.4454 36.8405 81.494 36.9052 81.5911C37.0023 81.6558 37.0507 81.7529 37.0507 81.8824C37.0507 82.1412 36.9861 82.3677 36.8566 82.5618C36.0153 83.5649 35.1092 84.4711 34.1384 85.2801C33.2 86.089 32.2129 86.7363 31.1774 87.2217C30.1743 87.6747 29.155 87.9011 28.1196 87.9012C27.8283 87.9012 27.537 87.7878 27.2458 87.5613C26.9546 87.3672 26.7281 87.1083 26.5664 86.7847C26.4369 86.4611 26.4529 86.1214 26.6147 85.7654C27.5531 83.5973 28.4917 81.4453 29.4301 79.3096C30.4009 77.1415 31.307 74.9733 32.1484 72.8052C32.6661 71.4786 32.8441 70.5564 32.6823 70.0386C32.5205 69.4885 32.213 69.1972 31.76 69.1648C31.404 69.1325 30.9834 69.262 30.498 69.5533C30.0126 69.8121 29.4624 70.2327 28.8476 70.8152C28.2328 71.3653 27.5693 72.0773 26.8574 72.951C26.4691 73.404 25.9513 74.116 25.3041 75.0867C24.657 76.0251 23.9288 77.1255 23.1198 78.3875C22.3108 79.6171 21.4696 80.9439 20.5959 82.3677C19.7546 83.7591 18.9455 85.1344 18.1689 86.4934C17.8777 87.0112 17.6188 87.3834 17.3923 87.6099C17.1658 87.8687 16.9231 87.9983 16.6643 87.9983C16.4701 87.9983 16.2759 87.9174 16.0817 87.7556C15.9199 87.6262 15.7742 87.4482 15.6447 87.2217C15.5153 87.0276 15.4182 86.8009 15.3535 86.542C15.3211 86.2832 15.3536 86.0567 15.4506 85.8626L21.0048 72.2637L21.0231 72.2608L21.1596 71.8794C21.2388 71.6769 21.3056 71.4904 21.3603 71.3196L22.4687 68.2273C20.2969 67.5377 18.9276 67.1017 17.7714 67.0686C17.4488 67.1992 17.0928 67.3486 16.6943 67.5142C13.7685 68.7298 12.1825 64.7395 15.1396 64.3575Z" fill="#D4D5D0"/>

<path d="M84.791 60.5527C85.1123 60.5528 85.2734 60.7403 85.2734 61.1152C85.2734 61.2492 85.2592 61.3969 85.2324 61.5576C85.2056 61.6915 85.1658 61.8526 85.1123 62.04L78.6025 84.584C78.549 84.7982 78.495 85.0124 78.4414 85.2266C78.4146 85.4141 78.4014 85.6158 78.4014 85.8301C78.4014 86.4193 78.5889 86.7139 78.9639 86.7139C79.3121 86.7138 79.7278 86.5936 80.21 86.3525C80.3433 86.2785 80.4751 86.1957 80.6084 86.1094C80.7071 85.6168 80.7992 85.0197 80.9355 84.2793C81.4602 81.4313 85.309 82.2018 84.1299 84.6592C83.3083 86.3714 80.8989 87.8941 79.3662 88.6641C79.1488 88.8041 78.9354 88.933 78.7227 89.0449C78.2137 89.3128 77.7848 89.4463 77.4365 89.4463C77.1419 89.4463 76.8606 89.3525 76.5928 89.165C76.3249 89.0043 76.0967 88.7903 75.9092 88.5225C75.7485 88.2278 75.6689 87.9324 75.6689 87.6377C75.6691 87.5034 75.7221 87.1554 75.8291 86.5938C75.8827 86.2992 75.9632 85.9372 76.0703 85.5088C76.1774 85.0535 76.2712 84.6244 76.3516 84.2227C76.4587 83.794 76.5259 83.4854 76.5527 83.2979C76.5631 83.2616 76.5737 83.2341 76.5801 83.2139C76.5916 83.0868 76.5704 82.9944 76.5127 82.9365C76.4591 82.8294 76.3919 82.8426 76.3115 82.9766C74.463 85.3073 72.8423 86.9687 71.4492 87.96C70.0562 88.9512 68.6361 89.4462 67.1895 89.4463C66.4125 89.4463 65.783 89.1784 65.3008 88.6426C64.8185 88.1068 64.5771 87.41 64.5771 86.5527C64.5772 85.5349 64.7912 84.3965 65.2197 83.1377C65.6752 81.8785 66.2782 80.6053 67.0283 79.3193C67.8052 78.0335 68.6762 76.8415 69.6406 75.7432C70.6854 74.5644 71.7438 73.6537 72.8154 73.0107C73.8871 72.341 74.8517 72.0059 75.709 72.0059C76.0571 72.0059 76.3385 72.0599 76.5527 72.167C76.7672 72.2475 77.2492 72.5287 77.999 73.0107C78.5616 73.359 78.8702 73.5597 78.9238 73.6133C78.9835 73.6332 79.0057 73.6443 78.9912 73.6494C79.0595 73.6301 79.1177 73.5378 79.165 73.3721L81.8574 64.3301C81.9109 64.1696 81.9375 64.0491 81.9375 63.9688C81.9643 63.8616 81.9775 63.7944 81.9775 63.7676C82.0042 63.7143 82.0174 63.6743 82.0176 63.6475V63.5264C82.0176 63.2317 81.9371 63.0045 81.7764 62.8438C81.6156 62.6562 81.3212 62.482 80.8926 62.3213C80.3032 62.107 79.9548 61.9858 79.8477 61.959C79.7409 61.9055 79.6877 61.8389 79.6875 61.7588C79.6875 61.5713 79.7945 61.4236 80.0088 61.3164C80.2231 61.2093 80.5715 61.1155 81.0537 61.0352C81.4554 60.9816 81.8571 60.9276 82.2588 60.874C82.6874 60.7937 83.0765 60.7407 83.4248 60.7139C83.773 60.6603 84.0675 60.6196 84.3086 60.5928C84.5497 60.566 84.7107 60.5527 84.791 60.5527ZM76.2715 73.292C75.6553 73.292 74.9586 73.5864 74.1816 74.1758C73.4047 74.7652 72.6143 75.5424 71.8105 76.5068C71.0069 77.4713 70.2571 78.5297 69.5605 79.6816C68.8908 80.8068 68.3407 81.9315 67.9121 83.0566C67.5103 84.1817 67.3096 85.1731 67.3096 86.0303C67.3096 86.6195 67.4034 87.022 67.5908 87.2363C67.8051 87.4506 68.1669 87.5576 68.6758 87.5576C69.3991 87.5576 70.1896 87.303 71.0469 86.7939C71.9042 86.2581 72.7486 85.5614 73.5791 84.7041C74.4361 83.8202 75.2128 82.856 75.9092 81.8115C76.6325 80.7667 77.209 79.7216 77.6377 78.6768C78.0663 77.6319 78.2803 76.6673 78.2803 75.7832C78.2803 75.0063 78.1061 74.4032 77.7578 73.9746C77.4096 73.5195 76.9142 73.292 76.2715 73.292Z" fill="#D4D5D0"/>
</svg>